<svg id="visual" viewBox="0 0 900 30" width="900" height="30" xmlns="http://www.w3.org/2000/svg" xmlns:xlink="http://www.w3.org/1999/xlink" version="1.1"><path d="M0 21L8.3 21.3C16.7 21.7 33.3 22.3 50 22.2C66.7 22 83.3 21 100 20C116.7 19 133.3 18 150 18.3C166.7 18.7 183.3 20.3 200 21.3C216.7 22.3 233.3 22.7 250 23C266.7 23.3 283.3 23.7 300 23.8C316.7 24 333.3 24 350 23.5C366.7 23 383.3 22 400 21.5C416.7 21 433.3 21 450 21C466.7 21 483.3 21 500 20.2C516.7 19.3 533.3 17.7 550 16.8C566.7 16 583.3 16 600 17.2C616.7 18.3 633.3 20.7 650 22C666.7 23.3 683.3 23.7 700 23.7C716.7 23.7 733.3 23.3 750 23C766.7 22.7 783.3 22.3 800 21.5C816.7 20.7 833.3 19.3 850 19.3C866.7 19.3 883.3 20.7 891.7 21.3L900 22L900 31L891.7 31C883.3 31 866.7 31 850 31C833.3 31 816.7 31 800 31C783.3 31 766.7 31 750 31C733.3 31 716.7 31 700 31C683.3 31 666.7 31 650 31C633.3 31 616.7 31 600 31C583.3 31 566.7 31 550 31C533.3 31 516.7 31 500 31C483.3 31 466.7 31 450 31C433.3 31 416.7 31 400 31C383.3 31 366.7 31 350 31C333.3 31 316.7 31 300 31C283.3 31 266.7 31 250 31C233.3 31 216.7 31 200 31C183.3 31 166.7 31 150 31C133.3 31 116.7 31 100 31C83.3 31 66.7 31 50 31C33.3 31 16.7 31 8.3 31L0 31Z" fill="#74aafa" stroke-linecap="round" stroke-linejoin="miter"></path></svg>